<?xml version="1.0" standalone="no"?>
<!DOCTYPE svg PUBLIC "-//W3C//DTD SVG 20010904//EN"
 "http://www.w3.org/TR/2001/REC-SVG-20010904/DTD/svg10.dtd">
<svg version="1.0" xmlns="http://www.w3.org/2000/svg"
 width="512.000000pt" height="512.000000pt" viewBox="0 0 512.000000 512.000000"
 preserveAspectRatio="xMidYMid meet">
<metadata>
Created by potrace 1.11, written by Peter Selinger 2001-2013
</metadata>
<g transform="translate(0.000000,512.000000) scale(0.100000,-0.100000)"
fill="#000000" stroke="none">
<path d="M0 2560 l0 -2560 2560 0 2560 0 0 2560 0 2560 -2560 0 -2560 0 0
-2560z m1420 1807 c38 -20 77 -71 319 -419 152 -218 278 -399 281 -401 3 -3
115 168 250 380 135 211 253 389 262 394 9 5 23 6 31 3 9 -3 129 -178 268
-390 139 -211 256 -384 260 -384 4 0 123 172 265 383 141 210 264 391 273 401
9 10 34 27 56 37 37 17 73 19 423 19 l382 0 0 -309 0 -310 -242 -3 c-231 -3
-245 -4 -273 -25 -19 -14 -174 -250 -425 -650 -217 -345 -405 -638 -417 -650
-30 -31 -68 -29 -102 5 -15 15 -98 131 -186 257 -87 127 -190 274 -228 328
l-69 99 -233 -350 c-128 -192 -241 -352 -250 -356 -32 -12 -64 -6 -88 17 -14
12 -194 289 -402 614 -207 326 -390 611 -406 633 -57 78 -64 80 -326 80 l-233
0 0 310 0 310 383 0 c381 0 384 0 427 -23z m1400 -1967 c144 -209 265 -382
269 -385 5 -2 103 145 217 327 115 182 224 346 242 364 72 70 62 69 525 72
l417 3 0 -311 0 -310 -257 0 c-284 0 -308 -5 -364 -66 -15 -16 -183 -315 -374
-664 -191 -349 -360 -648 -376 -665 -28 -28 -31 -29 -56 -15 -17 10 -180 257
-473 718 l-448 702 206 305 c114 168 208 305 209 305 1 0 119 -171 263 -380z"/>
</g>
</svg>
